<svg width="218" height="47" viewBox="0 0 218 47" fill="none" xmlns="http://www.w3.org/2000/svg">
<g clip-path="url(#clip0_411_25)">
<path d="M20.8391 47.0044C31.3376 47.0044 39.8483 44.8333 39.8483 42.1551C39.8483 39.477 31.3376 37.3059 20.8391 37.3059C10.3407 37.3059 1.82996 39.477 1.82996 42.1551C1.82996 44.8333 10.3407 47.0044 20.8391 47.0044Z" fill="#DAE2ED"/>
<path d="M50.283 11.3033C53.6012 11.338 54.328 11.9046 54.4751 14.8462V19.7387C54.4015 21.1576 53.9646 21.7588 52.6884 22.2909C54.0381 22.8576 54.6568 23.8482 54.7303 25.4444V32.0024C54.5832 34.1653 53.5623 34.9439 50.9406 34.9439H44.235V11.3033H50.283ZM50.2441 21.3695C51.6674 21.1922 51.9919 20.911 51.9919 19.916V15.4518C51.9573 13.7172 51.7712 13.5009 50.1316 13.4316H46.8134V21.3695H50.2441ZM50.2441 32.6729C51.6285 32.6729 52.139 32.2836 52.2471 31.1502V25.5872C52.2471 24.0299 51.8102 23.6016 50.097 23.5324H46.8178V32.6772H50.2441V32.6729Z" fill="#3C4B5D"/>
<path d="M59.978 17.5065V31.3621C59.978 33.0967 60.4885 33.4904 62.7121 33.4904C64.0965 33.4904 64.4599 33.101 64.4599 31.7168V17.5065H66.5754V32.1061C66.5754 34.3728 65.5198 35.1904 62.565 35.1904C58.957 35.1904 57.7889 34.269 57.7889 31.3621V17.5065H59.978Z" fill="#3C4B5D"/>
<path d="M76.015 22.7148V20.3053C76.015 19.2065 75.2147 18.7091 73.5361 18.7091C71.9311 18.7091 71.4206 19.1676 71.4206 20.66V23.3161C71.5288 24.7695 71.8965 24.9123 75.0286 24.8734C77.5422 24.908 78.1997 25.5828 78.1997 28.3124V31.2539C78.1997 32.5993 78.1262 33.166 77.8363 33.6634C77.2177 34.693 75.9025 35.1861 73.8649 35.1861C72.5887 35.1861 71.5331 34.9741 70.8409 34.5848C69.8589 34.0527 69.4565 33.0967 69.4565 31.2885V28.5936H71.4596V31.6043C71.4596 33.0232 72.0436 33.4817 73.8303 33.4817C75.5435 33.4817 76.1275 33.127 76.1275 32.0283V27.8452C76.0929 26.8157 75.7987 26.6037 74.3797 26.6383C70.006 26.5691 69.4955 26.249 69.3484 23.4502V20.0847C69.3484 17.9564 70.5857 17.0739 73.614 17.0739C76.7851 17.0739 77.9878 17.818 77.9878 19.6954V22.7061H76.015V22.7148Z" fill="#3C4B5D"/>
<path d="M81.0118 13.185H83.2354V15.2052H81.0118V13.185ZM83.2354 17.5065V34.9439H81.0118V17.5065H83.2354Z" fill="#3C4B5D"/>
<path d="M93.0774 34.9439V20.4481C93.0774 19.2065 92.3463 18.6053 90.7802 18.6053C89.1016 18.6053 88.483 19.1027 88.483 20.4481V34.9439H86.3675V20.0241C86.3675 17.792 87.5702 16.9744 90.7066 16.9744C94.0594 16.9744 95.1539 17.8266 95.1539 20.4481V34.9439H93.0774Z" fill="#3C4B5D"/>
<path d="M100.22 26.5431V31.2928C100.22 33.2048 100.878 33.9143 102.625 33.9143C104.118 33.9143 104.775 33.313 104.775 31.9287V29.0953H106.891V32.357C106.891 34.5891 105.835 35.4067 102.989 35.4067C99.5277 35.4067 98.1044 34.2387 98.1044 31.401V20.0241C98.1044 17.6838 99.199 16.9052 102.37 16.9052C105.541 16.9052 106.891 17.8612 106.891 20.0587V26.5431H100.22ZM104.78 24.843V20.0241C104.78 18.8172 104.049 18.2894 102.409 18.2894C100.843 18.2894 100.22 18.7479 100.22 20.0241V24.843H104.78Z" fill="#3C4B5D"/>
<path d="M116.114 22.7148V20.3053C116.114 19.2065 115.314 18.7091 113.635 18.7091C112.03 18.7091 111.52 19.1676 111.52 20.66V23.3161C111.628 24.7695 111.996 24.9123 115.128 24.8734C117.641 24.908 118.299 25.5828 118.299 28.3124V31.2539C118.299 32.5993 118.225 33.166 117.936 33.6634C117.317 34.693 116.002 35.1861 113.964 35.1861C112.688 35.1861 111.632 34.9741 110.94 34.5848C109.958 34.0527 109.556 33.0967 109.556 31.2885V28.5936H111.559V31.6043C111.559 33.0232 112.143 33.4817 113.93 33.4817C115.643 33.4817 116.227 33.127 116.227 32.0283V27.8452C116.192 26.8157 115.898 26.6037 114.479 26.6383C110.105 26.5691 109.595 26.249 109.448 23.4502V20.0847C109.448 17.9564 110.685 17.0739 113.713 17.0739C116.884 17.0739 118.087 17.818 118.087 19.6954V22.7061H116.114V22.7148Z" fill="#3C4B5D"/>
<path d="M127.341 22.7148V20.3053C127.341 19.2065 126.54 18.7091 124.862 18.7091C123.257 18.7091 122.746 19.1676 122.746 20.66V23.3161C122.854 24.7695 123.218 24.9123 126.354 24.8734C128.868 24.908 129.525 25.5828 129.525 28.3124V31.2539C129.525 32.5993 129.452 33.166 129.162 33.6634C128.543 34.693 127.228 35.1861 125.191 35.1861C123.914 35.1861 122.859 34.9741 122.167 34.5848C121.185 34.0527 120.782 33.0967 120.782 31.2885V28.5936H122.785V31.6043C122.785 33.0232 123.369 33.4817 125.156 33.4817C126.869 33.4817 127.453 33.127 127.453 32.0283V27.8452C127.418 26.8157 127.124 26.6037 125.705 26.6383C121.332 26.5691 120.821 26.249 120.674 23.4502V20.0847C120.674 17.9564 121.911 17.0739 124.94 17.0739C128.111 17.0739 129.313 17.818 129.313 19.6954V22.7061H127.341V22.7148Z" fill="#3C4B5D"/>
<path d="M139.519 11.3032C142.253 11.4114 143.166 12.4712 143.092 15.5555V31.0073C143.058 33.9489 141.781 34.9395 137.987 34.9395H132.593V11.3032H139.519ZM138.641 32.6382C140.462 32.6035 140.683 32.4262 140.756 31.0073V14.8115C140.722 13.8208 140.172 13.2888 139.151 13.2542H135.18V32.6382H138.641Z" fill="#6786BC"/>
<path d="M146.298 13.185H148.522V15.2052H146.298V13.185ZM148.522 17.5065V34.9439H146.298V17.5065H148.522Z" fill="#6786BC"/>
<path d="M151.654 20.3052C151.654 18.4278 152.93 17.2209 154.864 17.2209C155.664 17.2209 156.175 17.2901 157.451 17.541V19.1372C156.651 18.8907 156.214 18.8171 155.517 18.8171C154.28 18.8171 153.769 19.3146 153.769 20.5907V34.9438H151.654V20.3052Z" fill="#6786BC"/>
<path d="M161.353 26.5431V31.2928C161.353 33.2048 162.011 33.9143 163.758 33.9143C165.251 33.9143 165.909 33.313 165.909 31.9287V29.0953H168.024V32.357C168.024 34.5891 166.968 35.4067 164.122 35.4067C160.661 35.4067 159.238 34.2387 159.238 31.401V20.0241C159.238 17.6838 160.332 16.9052 163.503 16.9052C166.674 16.9052 168.024 17.8612 168.024 20.0587V26.5431H161.353ZM165.909 24.843V20.0241C165.909 18.8172 165.182 18.2894 163.538 18.2894C161.972 18.2894 161.349 18.7479 161.349 20.0241V24.843H165.909Z" fill="#6786BC"/>
<path d="M177.174 24.1682V20.4826C177.174 19.1373 176.482 18.4971 174.985 18.4971C174.037 18.4971 173.38 18.7436 173.125 19.2065C172.977 19.4531 172.943 19.7386 172.943 20.5908V31.6476C172.943 33.0664 173.635 33.7023 175.201 33.7023C176.512 33.7023 177.169 33.101 177.169 31.9677V28.8098H179.354V32.2488C179.354 34.1998 178.299 34.9438 175.599 34.9438C171.918 34.9438 170.749 34.057 170.749 31.2582V20.4869C170.749 19.1762 170.97 18.3976 171.515 17.9693C172.06 17.5454 173.263 17.2599 174.578 17.2599C176.291 17.2599 177.602 17.4719 178.368 17.8958C178.952 18.2159 179.242 18.7826 179.242 19.7732V24.1682H177.174Z" fill="#6786BC"/>
<path d="M184.169 13.5743V17.2945H187.816V19.0291H184.169V31.8941C184.169 33.0275 184.498 33.4557 185.298 33.4557C185.809 33.4557 185.991 33.4211 187.812 32.9929V34.5156C186.644 35.013 186.025 35.1515 185.151 35.1515C183.802 35.1515 182.928 34.7621 182.452 33.9835C182.162 33.4168 182.049 32.7766 182.049 31.3966V13.5743H184.169Z" fill="#6786BC"/>
<path d="M189.746 20.1669C189.746 17.9348 191.169 16.8706 194.228 16.8706C196.196 16.8706 197.399 17.3681 198.017 18.3933C198.42 19.0681 198.528 19.7776 198.528 21.3002V32.357C198.528 34.3426 197.143 35.2986 194.262 35.2986C190.836 35.2986 189.741 34.3772 189.741 31.613V20.1669H189.746ZM191.861 31.613C191.861 33.1011 192.592 33.8105 194.158 33.8105C194.959 33.8105 195.763 33.5985 196.053 33.313C196.308 33.0665 196.417 32.4998 196.417 31.4702V20.4481C196.417 18.9946 195.724 18.3933 194.046 18.3933C192.48 18.3933 191.857 18.8908 191.857 20.0587V31.613H191.861Z" fill="#6786BC"/>
<path d="M201.448 20.3052C201.448 18.4278 202.724 17.2209 204.658 17.2209C205.458 17.2209 205.969 17.2901 207.245 17.541V19.1372C206.445 18.8907 206.008 18.8171 205.311 18.8171C204.074 18.8171 203.563 19.3146 203.563 20.5907V34.9438H201.448V20.3052Z" fill="#6786BC"/>
<path d="M211.255 17.5065V31.6476C211.255 32.569 211.584 33.313 212.056 33.5596C212.385 33.7023 212.93 33.7715 213.695 33.7715C214.972 33.7715 215.811 33.1703 215.811 32.2489V17.5065H218V37.4961C218 39.5508 217.671 40.7923 216.979 41.359C216.287 41.8911 215.158 42.2112 213.99 42.2112C212.497 42.2112 211.437 41.9992 209.252 41.2898V39.3778C211.113 40.0137 212.134 40.23 213.444 40.23C215.231 40.23 215.815 39.7325 215.815 38.279V34.6929C214.868 35.3678 214.539 35.4716 213.189 35.4716C211.511 35.4716 210.092 34.9049 209.581 34.0181C209.252 33.4514 209.144 32.8847 209.144 31.6086V17.5065H211.255Z" fill="#6786BC"/>
<g opacity="0.85">
<path opacity="0.85" d="M178.359 37.58C178.766 37.5151 179.302 37.4589 179.982 37.4589C180.817 37.4589 181.431 37.6492 181.82 37.9866C182.179 38.2894 182.396 38.7523 182.396 39.319C182.396 39.8943 182.218 40.3485 181.889 40.6816C181.444 41.1445 180.713 41.3824 179.886 41.3824C179.636 41.3824 179.402 41.3737 179.207 41.3261V43.8784H178.359V37.58ZM179.207 40.6513C179.393 40.6989 179.627 40.7162 179.908 40.7162C180.929 40.7162 181.552 40.236 181.552 39.3536C181.552 38.51 180.938 38.1077 180.008 38.1077C179.64 38.1077 179.354 38.138 179.212 38.1726V40.6513H179.207Z" fill="#606060"/>
<path opacity="0.85" d="M183.529 37.5004H184.377V43.1802H187.176V43.868H183.529V37.5004Z" fill="#606060"/>
<path opacity="0.85" d="M188.617 37.5004V41.2725C188.617 42.7001 189.27 43.3057 190.144 43.3057C191.117 43.3057 191.74 42.6828 191.74 41.2725V37.5004H192.597V41.2163C192.597 43.1716 191.537 43.9762 190.118 43.9762C188.777 43.9762 187.764 43.2278 187.764 41.2552V37.5048H188.617V37.5004Z" fill="#606060"/>
<path opacity="0.85" d="M199.047 43.5869C198.666 43.721 197.918 43.9373 197.035 43.9373C196.045 43.9373 195.227 43.6907 194.587 43.0938C194.024 42.566 193.674 41.7138 193.674 40.7232C193.682 38.8242 195.024 37.4356 197.221 37.4356C197.978 37.4356 198.571 37.5957 198.857 37.7298L198.653 38.4003C198.303 38.2489 197.866 38.1277 197.204 38.1277C195.608 38.1277 194.569 39.0924 194.569 40.6886C194.569 42.3065 195.573 43.2582 197.096 43.2582C197.65 43.2582 198.03 43.1846 198.225 43.0894V41.1904H196.892V40.5286H199.051V43.5869H199.047Z" fill="#606060"/>
<path opacity="0.85" d="M201.184 37.5004V43.8724H200.336V37.5004H201.184Z" fill="#606060"/>
<path opacity="0.85" d="M202.659 43.8724V37.5004H203.585L205.683 40.7232C206.168 41.4715 206.549 42.142 206.86 42.7952L206.877 42.7866C206.799 41.9344 206.782 41.1601 206.782 40.1695V37.5048H207.578V43.8767H206.722L204.641 40.6453C204.182 39.9359 203.745 39.2091 203.416 38.517L203.386 38.5256C203.434 39.3302 203.455 40.0959 203.455 41.1514V43.8724H202.659Z" fill="#606060"/>
</g>
<path fill-rule="evenodd" clip-rule="evenodd" d="M18.7021 28.1873C17.3567 32.1151 11.5856 36.0819 8.55294 35.6882C7.58388 35.5585 7.80884 34.6284 8.38422 33.9968C10.703 31.4489 11.8495 28.6588 13.74 26.1931C15.2196 24.2767 19.7274 25.2025 18.7021 28.1873Z" fill="#3F4B5B"/>
<path fill-rule="evenodd" clip-rule="evenodd" d="M23.4999 29.1044C27.5578 29.9652 33.9303 27.0539 35.1416 24.2508C35.5266 23.3597 34.6138 23.0655 33.7788 23.2386C30.4001 23.922 27.4107 23.4678 24.3305 23.8269C21.9338 24.1124 20.4153 28.4512 23.4999 29.1044Z" fill="#3F4B5B"/>
<path fill-rule="evenodd" clip-rule="evenodd" d="M15.1633 25.1028C12.3816 27.2268 11.1227 34.5115 12.3513 39.6938C12.6498 40.9224 12.9699 41.2727 14.8605 41.4544C18.1527 41.7659 25.0183 40.9094 28.1332 39.7933C29.9199 39.1531 30.1492 38.7335 30.1362 37.4747C30.0497 32.1496 27.0387 25.4013 23.8157 24.0171C22.3491 23.3985 16.4266 24.1295 15.1633 25.1028Z" fill="#3F4B5B"/>
<path fill-rule="evenodd" clip-rule="evenodd" d="M15.8469 25.994C13.7833 27.5816 13.0868 32.3356 13.0219 34.7192C12.9787 36.2808 13.0955 37.916 13.4546 39.4343C13.6233 40.1611 13.5973 40.2086 14.9774 40.3341C18.1182 40.6326 24.7978 39.7934 27.7699 38.7335C29.072 38.2707 29.0331 38.2317 29.0201 37.4877C28.9725 34.2952 27.7785 30.4409 26.074 27.7546C25.4597 26.7856 24.4733 25.5095 23.3831 25.038C22.2972 24.5881 16.7771 25.2802 15.8469 25.994Z" fill="#3F4B5B"/>
<path fill-rule="evenodd" clip-rule="evenodd" d="M15.8469 25.994C13.7833 27.5816 13.0868 32.3357 13.0219 34.7192C12.9787 36.2808 13.0955 37.916 13.4546 39.4344C13.6233 40.1611 13.5973 40.2087 14.9774 40.3341C16.5478 40.4812 19.0007 40.3471 21.4363 40.0443L19.5631 25.077C17.9235 25.2889 16.3098 25.6436 15.8469 25.994Z" fill="#556981"/>
<path fill-rule="evenodd" clip-rule="evenodd" d="M14.6185 34.8663C14.8175 35.8699 14.7569 35.8699 15.8817 36.0083C17.1017 36.1554 19.0138 36.0645 20.8957 35.8266C22.7863 35.593 24.6508 35.208 25.7973 34.7668C26.8572 34.3558 26.7966 34.3688 26.7404 33.3479C26.2688 30.8692 24.6508 26.1541 22.5137 25.0986C22.0941 24.8953 20.8135 24.9256 19.5503 25.0813C18.2871 25.2413 17.0325 25.5269 16.6734 25.8297C14.8737 27.3697 14.4714 32.3487 14.6185 34.8663Z" fill="#ECF1F5"/>
<path fill-rule="evenodd" clip-rule="evenodd" d="M14.6182 34.8662C14.8172 35.8698 14.7566 35.8698 15.8814 36.0082C17.1014 36.1553 19.0136 36.0644 20.8955 35.8265L19.5544 25.0768C18.2911 25.2369 17.0365 25.5224 16.6775 25.8252C14.8735 27.3695 14.4711 32.3485 14.6182 34.8662Z" fill="white"/>
<path fill-rule="evenodd" clip-rule="evenodd" d="M15.7647 42.2288H10.768C10.5343 42.2288 10.3224 42.125 10.1796 41.9303C10.0325 41.7443 9.98925 41.515 10.0498 41.2858C10.4695 39.7241 11.936 38.8676 13.5021 38.7206C14.4928 38.6297 15.2196 38.8806 15.7084 39.5035C16.4742 40.4682 16.764 42.2288 15.7647 42.2288Z" fill="#FC802E"/>
<path fill-rule="evenodd" clip-rule="evenodd" d="M14.4323 39.3825C13.9477 39.8237 13.3421 40.8446 13.3421 41.606H10.8329C10.7723 41.606 10.742 41.5497 10.7593 41.4892C11.2093 39.9925 12.8705 39.2657 14.4323 39.3825Z" fill="#FDAC5C"/>
<path fill-rule="evenodd" clip-rule="evenodd" d="M27.9212 40.6153L32.5459 38.7249C32.7622 38.634 32.9179 38.4653 32.9871 38.2274C33.0477 37.9982 33.0044 37.7732 32.8573 37.5829C31.8796 36.2981 30.2054 36.0602 28.6999 36.5187C27.7438 36.8042 27.1684 37.3103 26.9521 38.076C26.6017 39.2526 26.9954 40.9873 27.9212 40.6153Z" fill="#FC802E"/>
<path fill-rule="evenodd" clip-rule="evenodd" d="M28.0769 37.4877C28.6912 37.7126 29.6387 38.4307 29.9285 39.1315L32.2603 38.1842C32.3165 38.1582 32.3209 38.0976 32.2863 38.0457C31.2869 36.8215 29.4786 36.7783 28.0769 37.4877Z" fill="#FDAC5C"/>
<path fill-rule="evenodd" clip-rule="evenodd" d="M29.7727 38.4351C31.3431 37.7949 32.7621 37.6521 32.9525 38.1237C33.1428 38.5952 32.0353 39.4863 30.4649 40.1265C28.9032 40.7667 27.4755 40.9008 27.2852 40.438C27.0948 39.9708 28.211 39.071 29.7727 38.4351Z" fill="#CD5A0C"/>
<path fill-rule="evenodd" clip-rule="evenodd" d="M5.00542 8.97625C3.21438 10.2956 2.72985 18.0648 5.00974 23.8398C5.54186 25.1851 6.70993 26.6083 9.53059 26.6472C15.0335 26.7078 24.5078 24.7439 29.5261 22.4944C32.1045 21.3394 32.6064 19.5702 32.5631 18.1167C32.3598 11.9048 28.8253 4.97487 26.6579 4.48173C21.1507 3.20561 9.54789 5.61509 5.00542 8.97625Z" fill="#3F4B5B"/>
<path fill-rule="evenodd" clip-rule="evenodd" d="M26.8092 6.2423C29.34 8.7729 31.0056 14.7815 31.1181 18.1686C31.1656 19.7129 30.3004 20.5737 28.942 21.1793C24.0664 23.3596 14.9036 25.2629 9.5521 25.2023C8.06389 25.185 6.92178 24.7438 6.35506 23.312C5.10479 20.1628 4.24821 13.9769 5.55471 10.6546C5.77102 10.1139 6.00031 10.0231 6.47186 9.72458C10.837 6.97336 20.493 4.96618 25.5892 5.7578C26.1559 5.83134 26.4025 5.82702 26.8092 6.2423Z" fill="#3F4B5B"/>
<path fill-rule="evenodd" clip-rule="evenodd" d="M5.56333 10.6503C4.25683 13.9725 5.10908 20.1584 6.36367 23.3076C6.92607 24.7395 8.07251 25.1807 9.56071 25.198C12.2343 25.2283 15.8639 24.7698 19.4287 24.0257L15.7731 6.40234C12.178 7.14638 8.66952 8.33598 6.48913 9.71159C6.00893 10.0144 5.77099 10.1096 5.56333 10.6503Z" fill="#556981"/>
<path fill-rule="evenodd" clip-rule="evenodd" d="M19.4253 24.03C16.7518 24.5838 14.0436 24.9774 11.7334 25.1331C9.82988 25.2586 8.39359 24.3502 7.71006 22.5939C6.81021 20.2882 6.27377 16.183 6.3949 13.886C6.62852 9.31362 14.1431 7.40161 16.7474 11.1175C17.6646 6.6792 25.3132 5.44201 27.3465 9.54289C28.3762 11.6063 29.5096 15.5731 29.6048 18.0604C29.6783 19.9508 28.7179 21.3524 26.9269 21.9883C24.7335 22.7583 22.0946 23.472 19.4253 24.03Z" fill="#ECF1F5"/>
<path fill-rule="evenodd" clip-rule="evenodd" d="M16.7378 11.1089L19.4201 24.0258C16.7465 24.5838 14.0383 24.9818 11.7281 25.1332C9.82463 25.2586 8.38834 24.3502 7.70481 22.5939C6.80497 20.2883 6.26852 16.1831 6.38965 13.8861C6.62759 9.30502 14.1335 7.39301 16.7378 11.1089Z" fill="white"/>
<path fill-rule="evenodd" clip-rule="evenodd" d="M24.2135 13.7346C23.3223 13.9206 22.7426 14.7944 22.9286 15.6855C23.1146 16.5766 23.9885 17.1563 24.8797 16.9703C25.7796 16.7843 26.3506 15.9105 26.1646 15.0193C26.1603 14.9761 26.1386 14.9328 26.1257 14.8809L24.6202 15.1924L25.6498 14.1196C25.2734 13.7865 24.7456 13.6221 24.2135 13.7346ZM13.5841 15.9407C12.6842 16.1267 12.1132 17.0006 12.2992 17.8917C12.4852 18.7828 13.3591 19.3538 14.2503 19.1765C15.1415 18.9904 15.7212 18.1166 15.5352 17.2255C15.5309 17.1822 15.5179 17.139 15.5049 17.0871L13.9994 17.3985L15.0204 16.3257C14.6483 15.9927 14.1162 15.8283 13.5841 15.9407Z" fill="#343D47"/>
<path d="M0.00425606 15.811C0.0302131 15.4389 0.536375 15.2573 1.4665 14.8939C3.08016 14.2753 5.70615 13.5226 8.28454 13.0165C9.91551 12.6921 11.5205 12.4628 12.8227 12.333C14.0297 12.2162 14.8084 12.3936 15.7731 13.2631C16.063 13.0944 16.7509 12.8088 17.0796 12.7353L17.5209 13.2933L17.8454 14.829L17.6161 15.3005C17.3695 15.3568 16.9542 15.5168 16.8417 15.7418C17.2527 18.095 17.1532 20.7381 15.6261 21.9882C13.0174 24.1382 5.97437 25.025 4.05355 23.0913C3.12342 22.1613 2.43989 21.0885 1.95968 19.8513C1.91642 19.7345 0.713748 19.1072 0.501766 18.5752C0.263826 18.0042 -0.0303533 16.4642 0.00425606 15.811ZM5.23892 22.516C6.8396 23.6364 12.6583 23.1778 14.9468 21.2312C16.1798 20.1757 16.1236 17.922 15.7039 15.8802C15.5222 15.0193 14.4017 13.7735 13.251 13.847C12.0007 13.9336 10.6596 14.1325 9.34013 14.3661C6.98669 14.7857 4.65921 15.2832 2.74272 16.1397C2.12841 16.4166 2.34039 17.139 2.52641 17.8398C2.88548 19.2586 3.95837 21.6249 5.23892 22.516Z" fill="#343D47"/>
<path d="M33.9647 8.76416C33.7959 8.43108 33.2595 8.46568 32.2602 8.50461C30.5297 8.57815 27.8215 8.93287 25.2561 9.49523C23.6338 9.84994 22.0634 10.2782 20.8174 10.6718C19.6623 11.0439 19.0264 11.5154 18.4813 12.692C18.1482 12.6531 17.4041 12.6661 17.0666 12.7309L16.8849 13.4187L17.2008 14.9544L17.5901 15.2961C17.8367 15.2486 18.291 15.2269 18.4813 15.3956C19.0437 17.7143 20.1858 20.1021 22.0764 20.6472C25.3296 21.5772 32.1433 19.5874 33.134 17.0524C33.6186 15.8239 33.8089 14.5737 33.7657 13.2414C33.7613 13.1116 34.6136 12.0648 34.5963 11.4894C34.6006 10.8795 34.2545 9.34815 33.9647 8.76416ZM31.8319 17.0005C30.8022 18.666 25.2907 20.5563 22.4181 19.6825C20.8607 19.211 20.0214 17.1173 19.5975 15.0842C19.4158 14.2147 19.9565 12.6358 21.0424 12.2378C22.2321 11.8182 23.5299 11.4678 24.8364 11.1607C27.1683 10.607 29.4914 10.1398 31.5939 10.1614C32.2688 10.1657 32.3553 10.9184 32.4678 11.6365C32.6928 13.0727 32.6495 15.6682 31.8319 17.0005Z" fill="#343D47"/>
<path fill-rule="evenodd" clip-rule="evenodd" d="M17.0926 21.6638L18.0963 19.7475C18.2693 19.4187 18.65 19.3365 18.9312 19.5745L20.6098 20.9328L17.0926 21.6638Z" fill="#FC802E"/>
<path fill-rule="evenodd" clip-rule="evenodd" d="M18.5289 19.7302L18.8577 21.3005L17.4993 21.5773L18.3602 19.9292C18.4078 19.847 18.4597 19.7778 18.5289 19.7302Z" fill="#FDAC5C"/>
<path fill-rule="evenodd" clip-rule="evenodd" d="M16.647 21.958L18.5808 23.1865C18.7928 23.3249 19.0394 23.3552 19.273 23.3033C19.5023 23.2557 19.7186 23.1173 19.8614 22.914L21.1462 21.0236C21.2933 20.7943 21.1506 20.5607 20.8996 20.6127L18.8058 21.0452L16.7119 21.4865C16.448 21.5427 16.4177 21.8196 16.647 21.958Z" fill="#CD5A0C"/>
<path fill-rule="evenodd" clip-rule="evenodd" d="M19.273 23.312C19.0394 23.3596 18.7885 23.3249 18.5808 23.1952L16.647 21.9666C16.4178 21.8239 16.448 21.547 16.7163 21.4951L18.8101 21.0539L19.273 23.312Z" fill="#FC802E"/>
<path fill-rule="evenodd" clip-rule="evenodd" d="M18.7583 4.76723C18.9054 3.16668 18.4901 1.58775 17.7719 0.787476C16.7423 2.88117 15.2108 4.85807 13.3506 6.22935C14.9253 5.91357 16.4395 5.59778 18.144 5.35121C18.6026 5.282 18.7453 4.94026 18.7583 4.76723Z" fill="#3F4B5B"/>
<path fill-rule="evenodd" clip-rule="evenodd" d="M17.3697 2.72549C17.5168 2.4919 17.6595 2.25398 17.798 2.02039C18.1397 2.80336 18.2695 3.62094 18.17 4.55099C18.1441 4.79756 18.0316 4.66346 18.0273 4.60722C17.9407 3.87616 17.7201 3.43925 17.3697 2.72549Z" fill="#556981"/>
<path fill-rule="evenodd" clip-rule="evenodd" d="M16.1237 8.14564C17.4518 5.70155 16.4265 1.54011 14.4321 0.00012207C13.2035 3.8674 11.8105 4.98779 10.1233 6.67053C9.97619 6.81761 10.0973 7.19828 10.3526 7.168C13.0391 6.86087 14.8129 7.04255 16.1237 8.14564Z" fill="#3F4B5B"/>
<path fill-rule="evenodd" clip-rule="evenodd" d="M14.4019 2.10685C14.549 1.80837 14.6485 1.52287 14.7437 1.23737C15.557 2.29719 16.0156 3.7896 16.0934 5.13493C16.0978 5.23875 16.0761 5.37717 16.0199 5.19116C15.7171 4.11403 15.2066 3.08016 14.4019 2.10685Z" fill="#556981"/>
</g>
<defs>
<clipPath id="clip0_411_25">
<rect width="218" height="47" fill="white"/>
</clipPath>
</defs>
</svg>
